# xmcd CD database file
#
# Track frame offsets:
#	150
#	33426
#	76485
#	108092
#	146664
#	167149
#	190413
#	214520
#	245762
#	278302
#	303861
#
# Disc length: 4606 seconds
#
# Revision: 0
# Processed by: cddbd v1.5.1PL0 Copyright (c) Steve Scherf et al.
# Submitted via: CDex 1.50beta10
#
DISCID=8f11fc0b
DTITLE=Jesper Thilo Quartet - I Remember Boone
DYEAR=2003
DGENRE=Jazz
TTITLE0=Secret Love
TTITLE1=Alone Together
TTITLE2=Old Folks
TTITLE3=There´ll Never Be Another You
TTITLE4=I Got Rythm
TTITLE5=Somebody Loves Me
TTITLE6=Misty
TTITLE7=Sometimes I´m Happy
TTITLE8=I´ll Remember April
TTITLE9=What a Wonderful World
TTITLE10=There is No Greater Love
EXTD=YEAR: 2003
EXTT0=
EXTT1=
EXTT2=
EXTT3=
EXTT4=
EXTT5=
EXTT6=
EXTT7=
EXTT8=
EXTT9=
EXTT10=
PLAYORDER=
